# xmcd
#
# Track frame offsets: 
#        150
#        5920
#        16092
#        36145
#        53823
#        70976
#        89210
#        99951
#        116736
#        131356
#        150683
#        159080
#        163225
#        168011
#
# Disc length: 2331 seconds
#
# Revision: 8
# Processed by: cddbd v1.5.2PL0 Copyright (c) Steve Scherf et al.
# Submitted via: ExactAudioCopyFreeDBPlugin 1.0
#
DISCID=ab09190e
DTITLE=The Roots - Undun
DYEAR=2011
DGENRE=Hip-Hop
TTITLE0=Dun
TTITLE1=Sleep
TTITLE2=Make My (feat. Big K.R.I.T. and Dice Raw)
TTITLE3=One Time (feat. Phonte and Dice Raw)
TTITLE4=Kool On (feat. Greg Porn and Truck North)
TTITLE5=The OtherSide (feat. Bilal Oliver and Greg Porn)
TTITLE6=Stomp (feat. Greg Porn)
TTITLE7=Lighthouse (feat. Dice Raw)
TTITLE8=I Remember
TTITLE9=Tip The Scale (feat. Dice Raw)
TTITLE10=Redford Suite: Redford (For Yia-Yia and Pappou)
TTITLE11=Redford Suite: Possibility (2nd Movement)
TTITLE12=Redford Suite: Will To Power (3rd Movement)
TTITLE13=Redford Suite: Finality (4th Movement)
EXTD=YEAR: 2011
EXTT0=
EXTT1=
EXTT2=
EXTT3=
EXTT4=
EXTT5=
EXTT6=
EXTT7=
EXTT8=
EXTT9=
EXTT10=
EXTT11=
EXTT12=
EXTT13=
PLAYORDER=
